<svg xmlns="http://www.w3.org/2000/svg" viewBox="0 0 400 400" width="400" height="400">
<defs>
<linearGradient id="bg" x1="0" y1="0" x2="0" y2="1"><stop offset="0" stop-color="#F5F8FC"/><stop offset="1" stop-color="#E4EBF4"/></linearGradient>
<linearGradient id="steel" x1="0" y1="0" x2="1" y2="1"><stop offset="0" stop-color="#E3E8EF"/><stop offset="0.5" stop-color="#AEB8C5"/><stop offset="1" stop-color="#7D8898"/></linearGradient>
<linearGradient id="dark" x1="0" y1="0" x2="1" y2="1"><stop offset="0" stop-color="#4A5566"/><stop offset="1" stop-color="#1F2733"/></linearGradient>
<linearGradient id="blue" x1="0" y1="0" x2="1" y2="1"><stop offset="0" stop-color="#3B9BE0"/><stop offset="1" stop-color="#0A5E9C"/></linearGradient>
<linearGradient id="red" x1="0" y1="0" x2="1" y2="1"><stop offset="0" stop-color="#F0625A"/><stop offset="1" stop-color="#B42A22"/></linearGradient>
<linearGradient id="amber" x1="0" y1="0" x2="1" y2="1"><stop offset="0" stop-color="#FFD166"/><stop offset="1" stop-color="#E09B1A"/></linearGradient>
<linearGradient id="green" x1="0" y1="0" x2="1" y2="1"><stop offset="0" stop-color="#5FD08E"/><stop offset="1" stop-color="#1E8A52"/></linearGradient>
<radialGradient id="glow" cx="0.5" cy="0.45" r="0.55"><stop offset="0" stop-color="#FFFFFF" stop-opacity="0.9"/><stop offset="1" stop-color="#FFFFFF" stop-opacity="0"/></radialGradient>
</defs>
<rect width="400" height="400" fill="url(#bg)"/>
<circle cx="200" cy="190" r="170" fill="url(#glow)"/>
<ellipse cx="200" cy="338" rx="120" ry="16" fill="#0F1B2D" opacity="0.10"/>
<g transform="rotate(-28 200 200)">
<rect x="40" y="188" width="320" height="16" rx="8" fill="url(#dark)"/>
<rect x="46" y="204" width="308" height="10" rx="4" fill="#12171F"/>
<path d="M60 188 L140 160 L260 160 L340 188" fill="none" stroke="#39414D" stroke-width="8" stroke-linejoin="round"/>
<rect x="180" y="146" width="40" height="22" rx="6" fill="#39414D"/>
<rect x="196" y="100" width="10" height="50" rx="4" fill="#6B7684"/>
</g>
</svg>
